<?xml version="1.0" encoding="utf-8"?>
<!-- Generator: Adobe Illustrator 28.0.0, SVG Export Plug-In . SVG Version: 6.00 Build 0)  -->
<svg version="1.1" id="Layer_1" xmlns="http://www.w3.org/2000/svg" xmlns:xlink="http://www.w3.org/1999/xlink" x="0px" y="0px"
	 viewBox="0 0 394.6 126.8" style="enable-background:new 0 0 394.6 126.8;" xml:space="preserve">
<style type="text/css">
	.st0{fill:#A179DC;}
	.st1{fill:#280068;}
	.st2{fill:#390091;}
	.st3{fill:#FFFFFF;}
	.st4{fill:none;}
	.st5{font-family:'Impact';}
	.st6{font-size:72px;}
</style>
<path class="st0" d="M112.8,37.3c0-2.1-0.5-4-1.4-5.6c-0.9-1.6-2.3-2.9-4.1-4c-15-8.7-30-17.3-45.1-26c-4-2.3-8-2.3-12,0.1
	c-6,3.5-35.9,20.7-44.8,25.8C1.8,29.8,0,33,0,37.3c0,17.4,0,34.8,0,52.2c0,2.1,0.4,3.9,1.3,5.5c0.9,1.6,2.3,3,4.1,4.1
	c8.9,5.2,38.8,22.3,44.8,25.8c4,2.4,7.9,2.5,12,0.1c15-8.7,30-17.3,45.1-26c1.9-1.1,3.2-2.4,4.1-4.1c0.9-1.6,1.3-3.4,1.3-5.5
	C112.8,89.5,112.8,54.7,112.8,37.3"/>
<path class="st1" d="M56.6,63.2L1.3,95c0.9,1.6,2.3,3,4.1,4.1c8.9,5.2,38.8,22.3,44.8,25.8c4,2.4,7.9,2.5,12,0.1
	c15-8.7,30-17.3,45.1-26c1.9-1.1,3.2-2.4,4.1-4.1L56.6,63.2z"/>
<path class="st2" d="M112.8,37.3c0-2.1-0.5-4-1.4-5.6L56.6,63.2L111.5,95c0.9-1.6,1.3-3.4,1.3-5.5C112.8,89.5,112.8,54.7,112.8,37.3
	"/>
<g>
	<path class="st3" d="M89.1,51.3v5.9H95v-5.9h3v5.9h5.9v3H98v5.9h5.9v3H98v5.9h-3v-5.9h-5.9v5.9h-3v-5.9h-5.9v-3h5.9v-5.9h-5.9v-3
		h5.9v-5.9L89.1,51.3z M95,60.2h-5.9v5.9H95V60.2z"/>
	<path class="st3" d="M56.7,21.5c15.5,0,29,8.4,36.3,20.9l-0.1-0.1L74.7,52.8c-3.6-6.1-10.2-10.2-17.7-10.3l-0.2,0
		c-11.5,0-20.9,9.3-20.9,20.9c0,3.6,0.9,7.2,2.8,10.4c3.6,6.3,10.4,10.5,18.1,10.5c7.8,0,14.6-4.3,18.2-10.6l-0.1,0.2L93,84.3
		c-7.2,12.4-20.5,20.8-35.9,21l-0.5,0c-15.6,0-29.1-8.5-36.4-21.1c-3.5-6.1-5.6-13.3-5.6-20.9C14.8,40.2,33.5,21.5,56.7,21.5
		L56.7,21.5z"/>
</g>
<rect x="124.5" y="33.4" class="st4" width="270.2" height="58.2"/>
<text transform="matrix(1 0 0 1 124.4519 90.39)" class="st0 st5 st6">MIS3033</text>
</svg>
